<svg width="16" height="16" viewBox="0 0 16 16" fill="none" xmlns="http://www.w3.org/2000/svg">
<path fill-rule="evenodd" clip-rule="evenodd" d="M8.00011 2.50708L9.27967 6.7217H13.6521L10.1147 9.47221L11.4216 13.7769L8.00011 11.1165L4.57859 13.7769L5.88549 9.47221L2.34814 6.7217H6.72055L8.00011 2.50708ZM7.26856 7.6229H4.90123L6.81644 9.1121L6.08489 11.5217L8.00011 10.0325L9.91532 11.5217L9.18378 9.1121L11.099 7.6229H8.73166L8.00011 5.21332L7.26856 7.6229Z" fill="white"/>
<path fill-rule="evenodd" clip-rule="evenodd" d="M8 1L9.59454 6.25211H15L10.6269 9.65247L12.2504 15L8 11.695L3.7496 15L5.37311 9.65247L1 6.25211H6.40546L8 1ZM6.72044 6.72168H2.34804L5.88539 9.4722L4.57848 13.7769L8 11.1164L11.4215 13.7769L10.1146 9.4722L13.652 6.72168H9.27956L8 2.50706L6.72044 6.72168Z" fill="white"/>
</svg>
